<svg width="127" height="53" viewBox="0 0 127 53" fill="none" xmlns="http://www.w3.org/2000/svg">
<path d="M2.668 52V10.53H10.556V52H2.668ZM43.1393 52H35.5413V48.52H35.3673C34.2846 49.9893 33.0859 51.072 31.7713 51.768C30.4953 52.464 28.8519 52.812 26.8413 52.812C23.5933 52.812 21.0606 51.8453 19.2433 49.912C17.4259 47.9787 16.5173 45.3687 16.5173 42.082V22.246H24.3473V40.748C24.3473 44.344 25.9906 46.142 29.2773 46.142C31.0946 46.142 32.5446 45.5233 33.6273 44.286C34.7099 43.0487 35.2513 41.4247 35.2513 39.414V22.246H43.1393V52ZM49.2415 52V22.246H56.8395V26.248H57.0135C58.9081 23.0387 61.7888 21.434 65.6555 21.434C67.5115 21.434 69.1548 21.9173 70.5855 22.884C72.0548 23.812 73.1568 25.0687 73.8915 26.654H74.0075C76.1728 23.174 79.1501 21.434 82.9395 21.434C86.0328 21.434 88.4301 22.3813 90.1315 24.276C91.8715 26.132 92.7415 28.7033 92.7415 31.99V52H84.8535V33.324C84.8535 29.9213 83.3261 28.22 80.2715 28.22C78.6088 28.22 77.2941 28.8193 76.3275 30.018C75.3995 31.178 74.9355 32.744 74.9355 34.716V52H67.0475V33.324C67.0475 29.9213 65.5201 28.22 62.4655 28.22C60.8801 28.22 59.5848 28.8193 58.5795 30.018C57.6128 31.178 57.1295 32.744 57.1295 34.716V52H49.2415ZM98.6125 52V22.246H106.501V52H98.6125ZM98.6125 17.606V10.53H106.501V17.606H98.6125Z" fill="#212429"/>
<rect x="96" width="31" height="24" fill="white"/>
<g filter="url(#filter0_d)">
<circle cx="103" cy="13" r="4.5" stroke="#212429" stroke-width="3"/>
</g>
<defs>
<filter id="filter0_d" x="93" y="7" width="20" height="20" filterUnits="userSpaceOnUse" color-interpolation-filters="sRGB">
<feFlood flood-opacity="0" result="BackgroundImageFix"/>
<feColorMatrix in="SourceAlpha" type="matrix" values="0 0 0 0 0 0 0 0 0 0 0 0 0 0 0 0 0 0 127 0"/>
<feOffset dy="4"/>
<feGaussianBlur stdDeviation="2"/>
<feColorMatrix type="matrix" values="0 0 0 0 0 0 0 0 0 0 0 0 0 0 0 0 0 0 0.25 0"/>
<feBlend mode="normal" in2="BackgroundImageFix" result="effect1_dropShadow"/>
<feBlend mode="normal" in="SourceGraphic" in2="effect1_dropShadow" result="shape"/>
</filter>
</defs>
</svg>
